<?xml version="1.0" standalone="no"?>
<!DOCTYPE svg PUBLIC "-//W3C//DTD SVG 20010904//EN"
 "http://www.w3.org/TR/2001/REC-SVG-20010904/DTD/svg10.dtd">
 <svg version="1.0" xmlns="http://www.w3.org/2000/svg" width="10pt" height="10pt" viewBox="0 0 512.000000 512.000000" preserveAspectRatio="xMidYMid meet">
    <g transform="translate(0.000000,512.000000) scale(0.100000,-0.100000)" fill="#000000" stroke="none" style="fill:var(--text-main);"> 
        <path d="M4980 3893 c-17 -3 -405 -384 -1223 -1201 l-1197 -1197 -1188 1187 c-653 652 -1197 1191 -1209 1197 -88 45 -191 -47 -154 -137 7 -15 571 -586 1254 -1269 918 -917 1249 -1242 1269 -1245 16 -3 40 -3 55 -1 21 4 352 329 1275 1252 1098 1097 1248 1250 1253 1283 15 80 -52 145 -135 131z"/>
    </g>
</svg>
