<svg xmlns="http://www.w3.org/2000/svg" viewBox="0 0 400 98"><defs><style>.cls-1{fill:#fff;}.cls-2,.cls-3{fill:none;stroke:#fff;}.cls-2{stroke-linecap:round;stroke-linejoin:round;stroke-width:3px;}.cls-3{stroke-miterlimit:10;stroke-width:4px;}</style></defs><g id="Layer_4" data-name="Layer 4"><path class="cls-1" d="M158.52,56.31a14,14,0,0,1-7.1-1.61,14.48,14.48,0,0,1-4.55-4.1l2.81-2.3a13.61,13.61,0,0,0,4,3.5,10.28,10.28,0,0,0,5,1.15,8,8,0,0,0,5.35-1.6,5.67,5.67,0,0,0,1.84-4.49,4.87,4.87,0,0,0-1.34-3.64,8.74,8.74,0,0,0-4.65-1.85l-3.59-.6a13.85,13.85,0,0,1-3.94-1.24,8.19,8.19,0,0,1-2.55-2,7,7,0,0,1-1.38-2.58A10.18,10.18,0,0,1,148,32a8,8,0,0,1,2.9-6.68,12.42,12.42,0,0,1,7.83-2.26,14.61,14.61,0,0,1,6.51,1.3A10.94,10.94,0,0,1,169.47,28l-2.71,2.35a11,11,0,0,0-3.23-2.86,9.61,9.61,0,0,0-4.88-1.1,8,8,0,0,0-5,1.37,4.92,4.92,0,0,0-1.74,4.12,4.79,4.79,0,0,0,1.31,3.5c.87.9,2.45,1.55,4.72,1.94l3.45.6a13.88,13.88,0,0,1,4,1.25,8.47,8.47,0,0,1,2.6,2,6.94,6.94,0,0,1,1.41,2.58,10.92,10.92,0,0,1,.41,3,8.77,8.77,0,0,1-2.92,7Q163.9,56.31,158.52,56.31Z"/><path class="cls-1" d="M179.05,52.58h8.56V35.18h-8.56V32H191.3V52.58h8v3.18H179.05Zm10.41-25.83a3.05,3.05,0,0,1-2.26-.67,2.3,2.3,0,0,1-.64-1.68v-.73A2.34,2.34,0,0,1,187.2,22a4.18,4.18,0,0,1,4.51,0,2.35,2.35,0,0,1,.65,1.69v.73a2.31,2.31,0,0,1-.65,1.68A3,3,0,0,1,189.46,26.75Z"/><path class="cls-1" d="M217.36,56.31a10.66,10.66,0,0,1-5.07-1.13,9.38,9.38,0,0,1-3.5-3.25,15.07,15.07,0,0,1-2-5.2,34.51,34.51,0,0,1-.65-7,34.66,34.66,0,0,1,.65-7,15.08,15.08,0,0,1,2-5.23,9.54,9.54,0,0,1,3.5-3.25,12,12,0,0,1,10.13,0,9.54,9.54,0,0,1,3.5,3.25,15.08,15.08,0,0,1,2,5.23,34.7,34.7,0,0,1,.64,7,34.56,34.56,0,0,1-.64,7,15.07,15.07,0,0,1-2,5.2,9.38,9.38,0,0,1-3.5,3.25A10.65,10.65,0,0,1,217.36,56.31Zm0-3.36a6.59,6.59,0,0,0,3.27-.76,6.36,6.36,0,0,0,2.21-2.14,9.85,9.85,0,0,0,1.26-3.34,22.57,22.57,0,0,0,.39-4.4V37.06a22.69,22.69,0,0,0-.39-4.37,9.81,9.81,0,0,0-1.26-3.36,6.27,6.27,0,0,0-2.21-2.14,7.41,7.41,0,0,0-6.54,0,6.19,6.19,0,0,0-2.21,2.14,9.61,9.61,0,0,0-1.27,3.36,22.69,22.69,0,0,0-.39,4.37v5.25a22.57,22.57,0,0,0,.39,4.4,9.66,9.66,0,0,0,1.27,3.34,6.28,6.28,0,0,0,2.21,2.14A6.59,6.59,0,0,0,217.36,53Z"/><path class="cls-1" d="M253,41.16H240.47v14.6H236.6V23.62h3.87V37.8H253V23.62h3.87V55.76H253Z"/><path class="cls-1" d="M277.17,56.31q-5.9,0-8.78-4.28t-2.87-12.34q0-8.05,2.87-12.34t8.78-4.28a11,11,0,0,1,3.82.6,8.54,8.54,0,0,1,2.76,1.61,9.74,9.74,0,0,1,1.93,2.28,22.75,22.75,0,0,1,1.39,2.55l-3.32,1.52a14.23,14.23,0,0,0-1-2A7.11,7.11,0,0,0,281.47,28a5.62,5.62,0,0,0-1.8-1.13,6.85,6.85,0,0,0-2.5-.41,6.28,6.28,0,0,0-5.69,2.9,14.15,14.15,0,0,0-1.86,7.73v5.25a14.19,14.19,0,0,0,1.86,7.74,6.3,6.3,0,0,0,5.69,2.9,6.64,6.64,0,0,0,2.5-.42,5.59,5.59,0,0,0,1.8-1.12,7.11,7.11,0,0,0,1.31-1.66,14.79,14.79,0,0,0,1-2l3.32,1.51a19.42,19.42,0,0,1-1.39,2.58,10.29,10.29,0,0,1-1.93,2.26A8.92,8.92,0,0,1,281,55.71,11,11,0,0,1,277.17,56.31Z"/><path class="cls-1" d="M313.81,55.76l-2.71-9.17H299.82l-2.72,9.17h-4L303,23.62h5.11l9.85,32.14Zm-8.14-28h-.42l-4.51,15.51h9.44Z"/><path class="cls-2" d="M65.36,44.16a45.84,45.84,0,0,0,8.3,6.72c3.29,2.18,6.61,4,8.44,4.39a29.14,29.14,0,0,0,5.82.78c1.51.05,2.64,0,3.47,0,1,.07,1.56.12,2,.2s.93.17,1.69.35"/><path class="cls-2" d="M81.83,45.89c-1.23-.17-1.77-.24-2.15-.26s-.6,0-1.19,0c-.89,0-1.57,0-2.16.08a4,4,0,0,0-1.54.51,4,4,0,0,0-.8.66,6,6,0,0,1-1,.78,7.72,7.72,0,0,1-1.33.69,8.68,8.68,0,0,1-1.1.34"/><path class="cls-2" d="M84.12,63.56a8.24,8.24,0,0,1-1.79-1.35c-.63-.58-1.3-1.3-2.1-2.16A9,9,0,0,1,79,58.45a10.49,10.49,0,0,1-.79-1.75A4.81,4.81,0,0,1,78,56a5.61,5.61,0,0,0-.38-1,11.53,11.53,0,0,0-.54-1.06,9.18,9.18,0,0,0-.47-.79"/><path class="cls-2" d="M91.46,59.87a7.09,7.09,0,0,1-1-.74A10.09,10.09,0,0,1,89.31,58l-.43-.54c-.16-.2-.35-.44-.62-.75l-.21-.25-.17-.19"/><path class="cls-3" d="M73.78,4c-1.54-.36-2.36,2.7-2.76,3.66-1.17,2.78-2.34,5.55-3.63,8.28a42.39,42.39,0,0,0-2.81,6.54c-2.77,9.84-1.5,19.49,2.45,28.8,3.84,9,10.14,17.49,18.25,23.11,4.34,3,10.23,5.5,15.61,4.39,4.8-1,8.63-5.23,10.55-9.55,4.68-10.57,3.91-23.37,1.83-34.44a21.87,21.87,0,0,0-2.71-7.91c-1.7-2.78-4.55-4-7.47-5.17-1.56-.64-4.09-.95-5.15-2.42-1.33-1.87.1-4.83,1.59-6.17a13.14,13.14,0,0,1,11.34-2.8,15.8,15.8,0,0,1,6.55,3c1.65,1.27,3.71,3.25,6,2.86a4,4,0,0,0,3.25-4.05c-.24-1.94-2-3.53-3.45-4.67a25.13,25.13,0,0,0-11.37-5.05A19.43,19.43,0,0,0,95.78,6.18a16.67,16.67,0,0,0-5.14,6.57c-.81,1.75-1.62,3.5-3.43,4.45-2,1-11.28,2.95-11.67-1.09-.13-1.35,1.42-3.16,2-4.31A16,16,0,0,0,78.7,9.07C79.48,6.17,76.24,4.51,73.78,4Z"/><polygon class="cls-1" points="0 97 50 96.51 100 96.23 200 96 300 96.23 350 96.51 400 97 350 97.49 300 97.77 200 98 100 97.77 50 97.49 0 97"/></g></svg>