<?xml version="1.0" encoding="utf-8"?>
<svg version="1.1" xmlns="http://www.w3.org/2000/svg" xmlns:xlink="http://www.w3.org/1999/xlink" x="0px" y="0px"
	 viewBox="0 0 67.6 81" style="enable-background:new 0 0 67.6 81;" xml:space="preserve">
<style type="text/css">
	.st0{fill:#000000;}
	@media (prefers-color-scheme: dark) {
		.st0 {fill:#FFFFFF;}
	}
</style>
<g id="Layer_4">
	<path class="st0" d="M67.5,11.9c-0.3-2.6-2.3-4.5-4.2-6C60,3.2,55.7,1.3,51.1,0.4c-6.6-1.2-12.4,0.2-17.6,4.2
		c-2.5,1.9-4.3,4.3-5.7,7.3c-0.8,1.8-1.4,2.9-2.5,3.5c-1.4,0.7-6.7,1.7-8.5,0.7C16.4,16,16.4,16,16.4,16c0-0.4,0.7-1.4,1-1.9
		c0.3-0.5,0.6-0.9,0.8-1.3l0.2-0.3c0.4-0.8,0.9-1.7,1.1-2.8c0.4-1.4,0.2-2.7-0.5-3.9c-1.5-2.4-4.6-3.4-5.9-3.7
		c-3-0.7-4.3,2.9-4.9,4.4C8.2,6.6,8.1,6.7,8.1,6.8C6.8,9.8,5.7,12.4,4.5,15c-0.2,0.5-0.4,0.9-0.7,1.4c-0.8,1.7-1.7,3.5-2.3,5.5
		C-1.2,31.5-0.3,41.7,4.1,52C8.3,61.9,15,70.4,23,76c2.4,1.6,8,5,14.1,5c1,0,2.1-0.1,3.1-0.3c5.9-1.2,10-6.3,12-10.7
		c4.1-9.2,4.7-20.9,2-35.6c-0.5-2.7-1.2-5.6-3-8.6c-2.1-3.4-5.4-4.8-8.4-6c-0.5-0.2-1.1-0.4-1.7-0.6c-1-0.3-2.3-0.7-2.6-1.2
		c-0.5-0.7,0.3-2.6,1.3-3.5c2.4-2.1,6.2-3.1,9.6-2.3c2.3,0.5,4,1.3,5.8,2.7c0.2,0.2,0.4,0.3,0.6,0.5c1.7,1.4,4.1,3.2,6.9,2.7
		C65.6,17.6,67.9,14.7,67.5,11.9z M62,14.2c-1.1,0.2-2.5-0.9-3.7-1.9c-0.2-0.2-0.5-0.4-0.7-0.5C55.3,10,53.1,9,50.2,8.3
		c-4.6-1.1-9.8,0.2-13.1,3.3c-2,1.8-4,5.9-1.9,8.8c1.2,1.6,3.1,2.2,4.7,2.7c0.5,0.1,0.9,0.3,1.3,0.4c2.6,1.1,5.1,2.1,6.5,4.4
		c1.3,2.1,1.9,4.3,2.4,7.2c2.6,13.9,2.1,24.8-1.7,33.3c-1.5,3.3-4.7,7.5-9.1,8.4c-5.7,1.2-11.7-2.5-14.1-4.1
		c-7.4-5.1-13.6-13-17.5-22.2c-0.2-0.6-0.5-1.1-0.7-1.7c1.4,1.1,3,2.2,4.6,3.4c0.8,0.5,1.6,1,2.4,1.5c0,0.1,0.1,0.2,0.1,0.3
		c0.1,0.2,0.3,0.4,0.4,0.7c0.2,0.3,0.3,0.6,0.5,0.9c0.2,0.5,0.3,0.7,0.3,0.8l0,0.1c0,0.2,0.1,0.4,0.2,0.8c0.3,0.8,0.6,1.4,0.9,2
		c0.4,0.6,0.8,1.2,1.4,1.9c0.8,0.9,1.5,1.6,2.2,2.2c0.8,0.7,1.4,1.2,2.1,1.6c0.2,0.1,0.5,0.2,0.7,0.2c0.5,0,1.1-0.3,1.3-0.8
		c0.4-0.7,0.1-1.6-0.6-2c-0.4-0.2-0.9-0.6-1.5-1.1c-0.6-0.6-1.3-1.3-2-2.1c-0.5-0.5-0.8-0.9-1-1.3c-0.2-0.4-0.4-0.9-0.7-1.5
		c0-0.1-0.1-0.2-0.1-0.3c0.9,0.4,1.6,0.7,2.2,0.8c1.8,0.4,3.5,0.7,5.2,0.8l0.2,0.2c0.2,0.3,0.4,0.5,0.6,0.7l0.1,0.2
		c0.1,0.1,0.2,0.3,0.3,0.4c0.4,0.4,0.9,0.9,1.4,1.3c1,0.8,1.2,0.9,1.4,1c0.2,0.1,0.4,0.1,0.6,0.1c0.6,0,1.1-0.3,1.4-0.9
		c0.3-0.7,0-1.5-0.7-1.9c-0.1-0.1-0.3-0.3-0.7-0.6c-0.2-0.2-0.3-0.3-0.5-0.4c0.1,0,0.2,0,0.3,0c0.9,0.1,1.5,0.1,1.9,0.2
		c0.4,0.1,0.8,0.2,1.6,0.3c0.1,0,0.2,0,0.3,0c0.7,0,1.3-0.5,1.4-1.2c0.2-0.8-0.3-1.6-1.2-1.8c-0.8-0.2-1.2-0.3-1.7-0.4
		c-0.6-0.1-1.2-0.1-2.2-0.2c-0.5,0-1,0-1.6,0c-0.5,0-1.2,0-1.9,0c-1.9-0.1-3.6-0.3-5.5-0.7c-1.5-0.4-4.7-2-8-4.2
		c-0.3-0.2-0.6-0.4-0.9-0.6c0.1,0,0.2-0.1,0.2-0.1c0.6-0.4,0.9-0.7,1.2-1c0.2-0.2,0.3-0.3,0.5-0.4c0.3-0.2,0.6-0.3,1-0.3
		c0.5-0.1,1.2-0.1,2-0.1l0.6,0c0.2,0,0.3,0,0.5,0c0.3,0,0.8,0.1,2,0.3c0.8,0.1,1.6-0.5,1.7-1.3s-0.5-1.6-1.3-1.7
		c-1.3-0.2-1.9-0.3-2.3-0.3c-0.3,0-0.5,0-0.8,0l-0.5,0c-0.9,0-1.7,0-2.3,0.1c-0.8,0.1-1.5,0.3-2.1,0.7c-0.5,0.3-0.8,0.6-1.1,0.9
		c-0.2,0.2-0.4,0.4-0.7,0.6c-0.3,0.2-0.7,0.4-1.1,0.5C9.9,47,9.8,47,9.7,47c-1.9-1.4-3.4-2.8-4.4-3.9c0,0-0.1-0.1-0.1-0.1
		C3.5,36.1,3.6,29.5,5.4,23c0.5-1.6,1.2-3.2,2-4.8c0.2-0.5,0.5-0.9,0.7-1.4c1.3-2.7,2.4-5.4,3.7-8.4C11.8,8.2,11.9,8,12,7.8
		c0.1-0.4,0.5-1.2,0.7-1.7c1.3,0.4,2.4,1,2.8,1.7c0.2,0.3,0.2,0.5,0.1,0.8c-0.2,0.6-0.5,1.3-0.9,2l-0.2,0.4
		c-0.1,0.2-0.3,0.6-0.6,0.9c-0.8,1.2-1.8,2.8-1.6,4.4c0.1,1.5,1,2.7,2.3,3.4c3.7,2,10.7,0.1,12.3-0.7c2.4-1.3,3.5-3.6,4.3-5.4
		c1.1-2.5,2.6-4.3,4.5-5.8c4.4-3.3,9-4.4,14.5-3.4c4,0.7,7.6,2.3,10.5,4.6c0.8,0.6,2.6,2.1,2.7,3.4C63.7,13.1,62.8,14,62,14.2z"/>
</g>
</svg>