<?xml version="1.0" standalone="no"?>
<!DOCTYPE svg PUBLIC "-//W3C//DTD SVG 20010904//EN"
 "http://www.w3.org/TR/2001/REC-SVG-20010904/DTD/svg10.dtd">
<svg version="1.0" xmlns="http://www.w3.org/2000/svg"
 width="648.000000pt" height="648.000000pt" viewBox="0 0 648.000000 648.000000"
 preserveAspectRatio="xMidYMid meet">
<metadata>
Created by potrace 1.14, written by Peter Selinger 2001-2017
</metadata>
<g transform="translate(0.000000,648.000000) scale(0.100000,-0.100000)"
fill="#000000" stroke="none">
<path d="M4088 6475 c-2 -2 -26 -7 -53 -11 -59 -7 -58 -7 -155 -29 -83 -19
-186 -54 -270 -92 -98 -44 -165 -78 -168 -85 -2 -5 -8 -8 -13 -8 -13 0 -115
-69 -214 -144 -190 -146 -330 -326 -452 -584 -112 -235 -157 -277 -335 -318
-10 -2 -28 -6 -40 -9 -23 -5 -55 -11 -105 -20 -173 -28 -366 -16 -420 27 -15
12 -8 28 85 175 85 135 127 222 148 308 4 17 9 37 11 45 19 71 3 193 -34 265
-81 156 -341 310 -541 320 -88 4 -184 -59 -245 -160 -26 -44 -87 -174 -87
-186 0 -5 -13 -39 -30 -74 -16 -35 -30 -66 -30 -69 0 -3 -11 -29 -24 -58 -13
-29 -38 -87 -56 -128 -17 -41 -43 -98 -56 -127 -21 -45 -44 -97 -49 -113 -1
-3 -10 -23 -20 -45 -10 -22 -18 -43 -17 -47 1 -5 -2 -8 -8 -8 -5 0 -10 -5 -10
-11 0 -5 -34 -81 -76 -167 -98 -204 -111 -234 -149 -347 -14 -41 -60 -217 -70
-270 -15 -80 -27 -143 -30 -170 -2 -16 -6 -46 -9 -65 -22 -163 -30 -612 -13
-750 4 -36 9 -83 12 -105 4 -47 13 -110 21 -145 3 -14 8 -37 10 -52 2 -16 6
-40 8 -55 5 -35 65 -283 73 -303 3 -8 7 -19 8 -25 21 -86 100 -319 125 -365 7
-14 13 -27 13 -30 -3 -36 207 -475 319 -665 35 -60 71 -121 79 -135 8 -14 16
-27 19 -30 3 -3 27 -39 54 -80 27 -41 69 -101 92 -133 24 -31 44 -60 44 -63 0
-3 6 -11 12 -18 7 -7 24 -28 38 -46 113 -152 384 -446 535 -580 87 -77 244
-204 298 -240 20 -14 37 -28 37 -32 0 -5 5 -8 10 -8 6 0 32 -15 58 -33 26 -19
67 -45 92 -59 25 -14 63 -35 85 -48 223 -126 453 -210 685 -250 103 -18 357
-21 420 -6 14 4 39 8 55 11 51 7 68 12 150 43 133 50 173 71 283 150 235 167
429 420 557 726 66 159 149 426 170 546 3 19 10 51 15 70 5 19 11 53 15 75 3
23 8 52 11 65 5 26 8 44 19 143 3 32 8 67 10 77 26 133 26 830 0 1045 -12 100
-17 142 -20 175 -5 63 -16 142 -42 310 -14 91 -27 174 -28 185 -3 20 -11 60
-19 100 -43 207 -52 244 -93 365 -33 100 -121 281 -169 351 -56 82 -117 145
-210 219 -105 84 -335 193 -580 275 -184 62 -213 81 -214 142 0 49 37 137 80
192 85 107 297 212 480 238 61 8 205 8 260 -1 62 -10 231 -55 255 -69 11 -6
22 -12 25 -12 17 -2 110 -50 110 -57 0 -4 5 -8 11 -8 14 0 87 -52 204 -145
214 -170 366 -224 533 -189 203 42 363 223 378 424 5 75 -31 196 -87 289 -54
92 -247 267 -413 376 -167 109 -426 226 -608 274 -4 1 -13 3 -20 6 -27 9 -185
43 -233 50 -27 4 -61 10 -75 12 -31 6 -416 13 -422 8z m347 -329 c154 -22 138
-19 230 -40 72 -17 244 -70 280 -86 11 -5 54 -24 96 -43 223 -101 473 -288
542 -408 51 -88 42 -150 -29 -198 -69 -47 -146 -28 -271 67 -42 31 -90 67
-107 80 -17 12 -38 28 -46 35 -9 6 -36 25 -60 41 -25 16 -57 37 -71 46 -41 29
-149 81 -219 107 -36 13 -72 27 -80 30 -8 3 -24 8 -35 10 -11 2 -31 7 -45 12
-14 6 -38 12 -55 16 -16 3 -41 8 -55 10 -140 29 -323 26 -480 -7 -30 -7 -57
-12 -60 -13 -3 0 -35 -11 -72 -24 -242 -82 -448 -246 -540 -431 -31 -64 -57
-138 -63 -182 -12 -89 -12 -115 1 -175 29 -144 137 -253 309 -316 68 -25 95
-34 105 -35 3 0 46 -15 95 -33 316 -111 492 -238 587 -424 42 -82 93 -210 104
-260 3 -11 9 -40 15 -65 27 -116 80 -417 95 -530 2 -19 6 -46 9 -60 8 -41 21
-153 30 -255 3 -33 7 -73 10 -90 25 -176 25 -894 0 -985 -2 -8 -6 -37 -9 -65
-11 -91 -16 -129 -32 -210 -22 -116 -32 -160 -34 -160 -1 0 -3 -11 -6 -25 -2
-14 -14 -56 -25 -95 -12 -38 -22 -74 -24 -80 -1 -5 -4 -17 -7 -25 -119 -340
-217 -510 -399 -691 -58 -59 -118 -113 -132 -120 -14 -8 -55 -31 -91 -52 -36
-22 -72 -40 -79 -41 -6 -1 -17 -4 -22 -8 -31 -20 -196 -50 -275 -51 -53 0
-200 12 -209 18 -4 2 -26 6 -51 10 -117 17 -373 121 -549 222 -210 121 -460
321 -669 533 -61 63 -221 241 -257 288 -5 7 -15 18 -20 25 -75 86 -238 325
-335 487 -108 181 -320 618 -320 661 0 9 163 -110 168 -123 2 -5 8 -8 12 -8 5
0 49 -30 97 -66 48 -36 129 -91 179 -121 80 -50 94 -63 120 -112 16 -31 35
-64 43 -73 8 -10 11 -18 7 -18 -3 0 1 -11 9 -24 9 -14 18 -37 20 -53 8 -53 10
-58 57 -162 15 -36 40 -79 53 -97 14 -18 25 -36 25 -39 0 -4 6 -12 13 -19 6
-8 31 -36 54 -63 59 -70 240 -242 255 -243 4 0 13 -7 21 -15 28 -27 107 -64
130 -60 45 9 74 27 91 56 39 66 17 126 -69 183 -56 37 -205 181 -284 272 -35
41 -122 214 -108 214 2 0 23 -9 46 -21 24 -11 51 -22 60 -24 9 -3 43 -11 76
-19 33 -8 77 -17 99 -20 21 -4 41 -8 45 -11 7 -4 24 -6 184 -24 43 -5 82 -12
86 -17 5 -5 30 -36 56 -69 56 -71 79 -94 160 -159 80 -64 110 -78 151 -73 64
9 112 60 110 117 -1 27 -27 90 -37 90 -3 0 -19 12 -35 26 -16 14 -39 32 -51
41 -21 14 -34 41 -15 29 4 -2 34 -5 67 -7 33 -1 74 -6 90 -10 41 -11 114 -21
152 -21 119 0 153 172 45 226 -81 40 -223 57 -512 61 -230 3 -279 7 -470 41
-106 19 -96 16 -195 56 -64 26 -295 146 -316 164 -8 8 -19 14 -23 14 -4 0 -22
10 -39 22 -18 13 -34 23 -37 23 -3 0 -44 26 -93 59 l-87 58 27 21 c16 11 49
40 74 62 63 59 100 68 259 68 125 0 173 -3 274 -19 75 -12 149 61 138 136 -7
48 -60 96 -117 104 -26 4 -57 10 -68 13 -45 10 -344 9 -408 -2 -87 -15 -161
-52 -229 -115 -30 -28 -75 -62 -100 -75 l-46 -23 -89 71 c-109 87 -281 252
-282 269 -1 7 -10 54 -21 103 -11 50 -23 108 -26 130 -7 47 -14 88 -21 130
-25 144 -26 751 -2 793 3 4 7 30 11 57 11 89 49 276 65 318 6 15 8 27 6 27
-16 0 96 269 189 455 39 77 71 142 71 145 3 9 22 53 49 112 14 31 26 62 26 67
0 6 4 11 8 11 5 0 9 6 9 13 0 6 14 41 30 77 37 80 127 294 158 375 41 109 49
125 61 125 6 0 48 -18 93 -41 76 -38 126 -82 132 -119 7 -41 -68 -200 -152
-325 -48 -72 -96 -167 -106 -210 -18 -79 -5 -184 30 -250 16 -30 67 -87 103
-115 80 -62 236 -97 414 -94 69 1 125 3 125 4 0 1 19 4 42 6 23 2 77 11 120
20 43 9 87 17 98 19 77 13 253 82 283 111 7 8 17 14 21 14 10 0 125 117 130
132 2 7 13 21 23 32 10 12 55 95 99 185 44 91 104 198 132 239 93 135 219 248
412 370 71 44 282 132 351 145 11 2 26 7 34 10 20 7 70 15 145 23 33 3 61 7
62 8 5 4 238 -2 278 -8z"/>
</g>
</svg>
